<svg width="295" height="442" viewBox="0 0 295 442" fill="none" xmlns="http://www.w3.org/2000/svg">
<path opacity="0.07" d="M174.091 315H0L174.091 141V315Z" fill="white"/>
<path opacity="0.83" d="M174.591 119.5H55.0287L174.591 0V119.5Z" fill="#FFE600"/>
<path opacity="0.83" d="M55.0287 119.5H174.591L55.0287 239V119.5Z" fill="#FFE600"/>
<path opacity="0.83" d="M174.591 0H294.153L174.591 119.5V0Z" fill="#FFE600"/>
<path opacity="0.2" fill-rule="evenodd" clip-rule="evenodd" d="M13.9656 441.5H4.00208V322H13.9656V441.5ZM33.8927 441.5H23.9292V322H33.8927V441.5ZM43.8561 441.5H53.8197V322H43.8561V441.5ZM73.7467 441.5H63.7832V322H73.7467V441.5ZM83.7102 441.5H93.6738V322H83.7102V441.5ZM113.601 441.5H103.637V322H113.601V441.5Z" fill="white"/>
</svg>
