<svg width="240" height="229" viewBox="0 0 240 229" fill="none" xmlns="http://www.w3.org/2000/svg">
<path opacity="0.15" fill-rule="evenodd" clip-rule="evenodd" d="M22.918 43.7351L82.918 0H157.082L217.082 43.7351L240 114.5L217.082 185.265L157.082 229H82.918L22.918 185.265L0 114.5L22.918 43.7351ZM120 12.0881L92.151 3.00981L147.849 3.00981L120 12.0881ZM115.146 13.6704L84.0639 3.53824L64.8541 30.0646L115.146 13.6704ZM66.2192 32.7843L116.741 16.3152L97.2621 43.3023L66.2192 32.7843ZM60.9202 35.4969L28.5102 80.2514L60.7855 69.8769L60.9202 35.4969ZM60.7731 73.0414L27.9377 83.5959L48.0584 111.472L60.6911 93.9702L60.7731 73.0414ZM63.7075 89.7911L63.7769 72.0758L80.3358 66.7532L63.7075 89.7911ZM60.6709 99.13L49.9104 114.038L60.5547 128.786L60.6709 99.13ZM63.5385 132.92L63.6873 94.9508L85.1587 65.2029L119.728 54.091L156.362 66.5034L177.785 96.1838L178.08 133.686L142.997 180.983L84.7055 162.246L63.5385 132.92ZM60.5347 133.89L48.0584 116.604L28.2202 144.089L60.4542 154.451L60.5347 133.89ZM63.4504 155.414L63.5185 138.024L79.8825 160.696L63.4504 155.414ZM60.4418 157.607L27.1836 146.917L60.3045 192.653L60.4418 157.607ZM63.2943 195.262L63.438 158.57L82.8529 164.811L117.612 212.969L63.2943 195.262ZM161.265 68.1646L177.744 90.9954L177.608 73.7017L161.265 68.1646ZM177.583 70.5164L158.23 63.9594L145.198 45.904L177.307 35.5829L177.583 70.5164ZM180.616 74.7209L180.777 95.1978L193.527 112.862L213.543 85.8772L180.616 74.7209ZM213.172 82.5749L180.591 71.5356L180.32 37.2099L213.172 82.5749ZM153.327 62.2982L124.54 52.5444L142.192 46.8704L153.327 62.2982ZM119.753 50.9226L140.34 44.3051L120.291 16.528L100.238 44.3106L119.753 50.9226ZM95.4197 45.8549L83.3061 62.6379L63.7893 68.9113L63.9215 35.1826L95.4197 45.8549ZM98.3959 46.8632L114.941 52.4692L88.129 61.0877L98.3959 46.8632ZM146.017 181.953L178.12 138.674L178.543 192.409L146.017 181.953ZM181.088 134.672L181.525 190.126L213.723 145.665L213.576 145.772L193.494 117.948L181.088 134.672ZM180.818 100.386L181.049 129.683L191.649 115.393L180.818 100.386ZM124.021 16.5635L174.973 33.1729L143.346 43.3387L124.021 16.5635ZM25.9178 85.9292V142.148L46.2064 114.038L25.9178 85.9292ZM123.209 212.701L177.144 195.119L144.124 184.506L123.209 212.701ZM141.104 183.535L120.308 211.572L87.6758 166.361L141.104 183.535ZM195.371 115.417L214.082 141.341V90.1916L195.371 115.417ZM60 31.647L77.2116 7.87979L32.1511 40.7252L60 31.647ZM32.1511 188.275L77.2116 221.12L60 197.353L32.1511 188.275ZM57 193.21L25.9178 150.29V183.078L57 193.21ZM22.9178 146.147V175.525L5.70634 122.38L22.9178 146.147ZM22.9178 87.9737L3.7082 114.5L22.9178 141.026V87.9737ZM22.9178 82.8531L5.70634 106.62L22.9178 53.4754V82.8531ZM25.9178 78.7105V45.9219L57 35.7896L25.9178 78.7105ZM64.8541 198.935L84.0639 225.462L115.146 215.33L64.8541 198.935ZM120 216.912L92.151 225.99H147.849L120 216.912ZM162.788 221.12L207.849 188.275L180 197.353L162.788 221.12ZM175.146 198.935L124.854 215.33L155.936 225.462L175.146 198.935ZM183 193.21L214.082 183.078V150.29L183 193.21ZM217.082 146.147V175.525L234.294 122.379L217.082 146.147ZM234.294 106.621L217.082 53.4751V82.8531L234.294 106.621ZM217.082 141.026L236.292 114.5L217.082 87.9737V141.026ZM214.082 78.7105V45.9219L183 35.7896L214.082 78.7105ZM180 31.647L207.849 40.7253L162.788 7.8796L180 31.647ZM175.146 30.0646L124.854 13.6704L155.936 3.53824L175.146 30.0646Z" fill="#DEDEDE"/>
</svg>
