<svg width="1000" height="232" viewBox="0 0 1000 232" fill="none" xmlns="http://www.w3.org/2000/svg">
<g clip-path="url(#clip0_11_6)">
<path fill-rule="evenodd" clip-rule="evenodd" d="M642.344 14.2386H657.464C651.829 5.66244 642.123 0 631.092 0C613.678 0 599.562 14.1157 599.562 31.5284C599.562 36.1427 600.554 40.5258 602.335 44.4758L619.729 25.7697L633.433 40.4127L651.254 21.56H642.344V14.2386ZM656.05 36.2029H662.28C660.02 51.3987 646.919 63.0566 631.092 63.0566C620.919 63.0566 611.869 58.2374 606.103 50.7574L619.729 36.2029L633.433 50.8456L656.05 26.685V36.2029ZM35.4486 192.984V137.189H106.346V108.745H35.4486V68.2665H115.755V39.8221H0V192.984H35.4486ZM186.444 192.984V178.356C183.873 182.678 180.372 186.168 175.94 188.827C169.376 192.765 160.915 194.734 150.557 194.734C141.367 194.734 133.489 193.203 126.925 190.14C120.36 186.93 115.328 182.627 111.826 177.23C108.325 171.833 106.575 165.78 106.575 159.07C106.575 152.068 108.253 145.941 111.608 140.69C115.109 135.439 120.579 131.355 128.019 128.437C135.459 125.374 145.16 123.842 157.122 123.842H184.255C184.255 116.549 181.994 110.86 177.472 106.776C173.096 102.691 166.312 100.649 157.122 100.649C150.849 100.649 144.649 101.67 138.522 103.713C132.541 105.609 127.435 108.235 123.205 111.589L110.951 87.7399C117.37 83.2179 125.102 79.7171 134.146 77.2374C143.19 74.7577 152.381 73.5177 161.717 73.5177C179.66 73.5177 193.592 77.7479 203.511 86.2083C213.431 94.6687 218.391 107.87 218.391 125.812V192.984H186.444ZM184.255 143.753V155.788C182.213 161.039 178.931 165.05 174.409 167.822C169.886 170.447 164.781 171.76 159.091 171.76C153.11 171.76 148.369 170.52 144.868 168.041C141.513 165.415 139.835 161.914 139.835 157.538C139.835 153.6 141.294 150.318 144.212 147.692C147.275 145.066 152.818 143.753 160.842 143.753H184.255ZM299.175 194.734C288.818 194.734 279.919 192.546 272.479 188.17C268.569 185.869 265.14 182.943 262.195 179.391V192.984H229.591V30.6324H263.726V87.7312C266.51 84.6841 269.648 82.1342 273.136 80.0818C280.575 75.7058 289.256 73.5177 299.175 73.5177C310.263 73.5177 320.182 75.9974 328.934 80.957C337.834 85.9166 344.836 92.9183 349.941 101.962C355.193 111.006 357.818 121.727 357.818 134.126C357.818 146.379 355.193 157.028 349.941 166.071C344.836 175.115 337.834 182.19 328.934 187.295C320.182 192.255 310.263 194.734 299.175 194.734ZM293.267 166.728C298.956 166.728 303.989 165.415 308.365 162.789C312.888 160.164 316.462 156.444 319.088 151.63C321.86 146.671 323.245 140.836 323.245 134.126C323.245 127.27 321.86 121.436 319.088 116.622C316.462 111.808 312.888 108.089 308.365 105.463C303.989 102.837 298.956 101.524 293.267 101.524C287.578 101.524 282.473 102.837 277.95 105.463C273.429 108.089 269.853 111.808 267.228 116.622C264.602 121.436 263.289 127.27 263.289 134.126C263.289 140.836 264.602 146.671 267.228 151.63C269.853 156.444 273.429 160.164 277.95 162.789C282.473 165.415 287.578 166.728 293.267 166.728ZM398.613 192.984V154.321L419.14 132.897L468.197 192.984H509.554L442.42 108.061L505.834 39.8221H466.446L398.613 111.296V39.8221H363.383V192.984H398.613ZM572.906 192.984V178.356C570.335 182.678 566.834 186.168 562.403 188.827C555.838 192.765 547.376 194.734 537.02 194.734C527.829 194.734 519.952 193.203 513.387 190.14C506.823 186.93 501.79 182.627 498.289 177.23C494.788 171.833 493.037 165.78 493.037 159.07C493.037 152.068 494.716 145.941 498.07 140.69C501.571 135.439 507.042 131.355 514.481 128.437C521.921 125.374 531.621 123.842 543.584 123.842H570.718C570.718 116.549 568.457 110.86 563.934 106.776C559.558 102.691 552.775 100.649 543.584 100.649C537.311 100.649 531.112 101.67 524.985 103.713C519.004 105.609 513.897 108.235 509.667 111.589L497.414 87.7399C503.831 83.2179 511.565 79.7171 520.608 77.2374C529.652 74.7577 538.842 73.5177 548.179 73.5177C566.123 73.5177 580.055 77.7479 589.974 86.2083C599.893 94.6687 604.853 107.87 604.853 125.812V192.984H572.906ZM570.718 143.753V155.788C568.676 161.039 565.394 165.05 560.871 167.822C556.348 170.447 551.243 171.76 545.554 171.76C539.573 171.76 534.831 170.52 531.33 168.041C527.976 165.415 526.298 161.914 526.298 157.538C526.298 153.6 527.757 150.318 530.674 147.692C533.737 145.066 539.28 143.753 547.304 143.753H570.718ZM654.081 192.984V172.417L714.042 101.524H655.613V75.2682H757.144V95.8356L697.184 166.728H759.114V192.984H654.081ZM616.055 192.984V75.2682H650.19V192.984H616.055ZM818.223 194.734C804.803 194.734 792.987 192.109 782.775 186.858C772.709 181.606 764.904 174.459 759.361 165.415C753.818 156.225 751.046 145.796 751.046 134.126C751.046 122.311 753.744 111.881 759.142 102.837C764.685 93.6476 772.199 86.5 781.681 81.3946C791.162 76.1434 801.884 73.5177 813.847 73.5177C825.372 73.5177 835.729 75.9974 844.919 80.957C854.256 85.7707 861.621 92.7724 867.02 101.962C872.418 111.006 875.116 121.873 875.116 134.564C875.116 135.877 875.044 137.408 874.897 139.159C874.751 140.763 874.606 142.295 874.459 143.753H785.387C786.074 146.887 787.173 149.804 788.683 152.506C791.6 157.319 795.613 161.039 800.718 163.664C805.969 166.144 812.096 167.384 819.098 167.384C825.372 167.384 830.842 166.436 835.51 164.54C840.324 162.643 844.7 159.799 848.639 156.006L866.801 175.699C861.403 181.825 854.619 186.566 846.451 189.921C838.282 193.13 828.873 194.734 818.223 194.734ZM788.245 113.996C786.645 116.914 785.562 120.196 784.993 123.842H842.967C842.414 120.134 841.313 116.779 839.667 113.777C837.188 109.255 833.759 105.755 829.383 103.275C825.007 100.649 819.902 99.3365 814.066 99.3365C808.23 99.3365 803.053 100.649 798.53 103.275C794.153 105.755 790.724 109.329 788.245 113.996ZM949.702 73.5177C959.039 73.5177 967.354 75.4141 974.648 79.2066C982.088 82.8534 987.923 88.5423 992.153 96.2732C996.383 103.858 998.499 113.632 998.499 125.593V192.984H964.363V130.844C964.363 121.363 962.247 114.361 958.017 109.839C953.932 105.317 948.098 103.056 940.512 103.056C935.114 103.056 930.228 104.223 925.851 106.557C921.621 108.745 918.265 112.173 915.786 116.841C913.451 121.508 912.284 127.489 912.284 134.783V192.984H878.149V75.2682H910.753V89.2503C914.131 85.4869 918.142 82.3578 922.788 79.863C930.665 75.6329 939.637 73.5177 949.702 73.5177Z" fill="#FFCC00"/>
<path d="M352.298 207.863H0V231.931H352.298V207.863Z" fill="#FFCC00"/>
<path d="M997.812 207.863H363.239V231.931H997.812V207.863Z" fill="#FFCC00"/>
</g>
<defs>
<clipPath id="clip0_11_6">
<rect width="1000" height="231.931" fill="white"/>
</clipPath>
</defs>
</svg>
