<svg width="266" height="257" viewBox="0 0 266 257" fill="none" xmlns="http://www.w3.org/2000/svg">
<path fill-rule="evenodd" clip-rule="evenodd" d="M25.4007 49.0826L91.9007 0H174.099L240.599 49.0826L266 128.5L240.599 207.917L174.099 257H91.9007L25.4007 207.917L0 128.5L25.4007 49.0826ZM133 13.5661L102.134 3.37782L163.866 3.37782L133 13.5661ZM127.62 15.3419L93.1708 3.97087L71.88 33.7407L127.62 15.3419ZM73.393 36.7929L129.388 18.3101L107.799 48.5969L73.393 36.7929ZM67.5199 39.8371L31.5988 90.0638L67.3706 78.4208L67.5199 39.8371ZM67.3569 81.9722L30.9643 93.8172L53.2647 125.102L67.266 105.46L67.3569 81.9722ZM70.6092 100.77L70.6861 80.8886L89.0388 74.9152L70.6092 100.77ZM67.2436 111.251L55.3173 127.982L67.1148 144.532L67.2436 111.251ZM70.4219 149.172L70.5868 106.561L94.3842 73.1754L132.699 60.7048L173.301 74.6348L197.045 107.944L197.372 150.031L158.488 203.112L93.8819 182.084L70.4219 149.172ZM67.0926 150.261L53.2647 130.862L31.2774 161.707L67.0034 173.335L67.0926 150.261ZM70.3242 174.416L70.3997 154.9L88.5365 180.344L70.3242 174.416ZM66.9896 176.878L30.1285 164.88L66.8375 216.209L66.9896 176.878ZM70.1511 219.137L70.3105 177.959L91.8286 184.962L130.354 239.009L70.1511 219.137ZM178.736 76.4991L197 102.121L196.849 82.7133L178.736 76.4991ZM196.821 79.1385L175.372 71.7797L160.928 51.5168L196.516 39.9337L196.821 79.1385ZM200.183 83.8571L200.361 106.838L214.492 126.661L236.677 96.3775L200.183 83.8571ZM236.266 92.6714L200.155 80.2823L199.855 41.7596L236.266 92.6714ZM169.937 69.9154L138.031 58.9691L157.596 52.6013L169.937 69.9154ZM132.726 57.1489L155.544 49.7223L133.323 18.5489L111.097 49.7285L132.726 57.1489ZM105.757 51.4616L92.3309 70.2967L70.6998 77.3372L70.8463 39.4844L105.757 51.4616ZM109.055 52.5932L127.393 58.8846L97.6763 68.5569L109.055 52.5932ZM161.835 204.201L197.416 155.63L197.885 215.935L161.835 204.201ZM200.706 151.138L201.191 213.373L236.876 163.476L236.714 163.595L214.455 132.369L200.706 151.138ZM200.407 112.66L200.663 145.54L212.411 129.502L200.407 112.66ZM137.456 18.5887L193.928 37.229L158.876 48.6378L137.456 18.5887ZM28.7256 96.4358V159.528L51.2121 127.982L28.7256 96.4358ZM136.557 238.708L196.334 218.977L159.737 207.065L136.557 238.708ZM156.39 205.976L133.341 237.441L97.174 186.702L156.39 205.976ZM216.536 129.529L237.274 158.622V101.219L216.536 129.529ZM66.5 35.5165L85.5762 8.84326L35.6341 45.7047L66.5 35.5165ZM35.6341 211.295L85.5762 248.157L66.5 221.484L35.6341 211.295ZM63.175 216.834L28.7256 168.666V205.463L63.175 216.834ZM25.4006 164.016V196.986L6.32453 137.343L25.4006 164.016ZM25.4006 98.7303L4.10992 128.5L25.4006 158.27V98.7303ZM25.4006 92.9837L6.32453 119.657L25.4006 60.0139V92.9837ZM28.7256 88.3345V51.5368L63.175 40.1657L28.7256 88.3345ZM71.88 223.259L93.1708 253.029L127.62 241.658L71.88 223.259ZM133 243.434L102.134 253.622H163.866L133 243.434ZM180.424 248.157L230.366 211.295L199.5 221.484L180.424 248.157ZM194.12 223.259L138.38 241.658L172.829 253.029L194.12 223.259ZM202.825 216.834L237.274 205.463V168.666L202.825 216.834ZM240.599 164.016V196.986L259.676 137.343L240.599 164.016ZM259.676 119.657L240.599 60.0135V92.9837L259.676 119.657ZM240.599 158.27L261.89 128.5L240.599 98.7303V158.27ZM237.274 88.3345V51.5368L202.825 40.1656L237.274 88.3345ZM199.5 35.5165L230.366 45.7048L180.424 8.84305L199.5 35.5165ZM194.12 33.7407L138.38 15.3419L172.829 3.97087L194.12 33.7407Z" fill="#2E2E38"/>
</svg>
