<svg width="191" height="184" viewBox="0 0 191 184" fill="none" xmlns="http://www.w3.org/2000/svg">
<path fill-rule="evenodd" clip-rule="evenodd" d="M18.2389 35.1409L65.9889 0H125.011L172.761 35.1409L191 92L172.761 148.859L125.011 184H65.9889L18.2389 148.859L0 92L18.2389 35.1409ZM95.5 9.71268L73.3368 2.41836L117.663 2.41836L95.5 9.71268ZM91.6369 10.9841L66.9008 2.84296L51.6131 24.1567L91.6369 10.9841ZM52.6995 26.342L92.9062 13.1092L77.4044 34.7931L52.6995 26.342ZM48.4824 28.5215L22.6894 64.4814L48.3752 56.1456L48.4824 28.5215ZM48.3653 58.6883L22.2337 67.1688L38.2465 89.5674L48.3 75.5045L48.3653 58.6883ZM50.7006 72.1466L50.7558 57.9125L63.9339 53.6358L50.7006 72.1466ZM48.2839 79.6503L39.7203 91.6291L48.1915 103.479L48.2839 79.6503ZM50.5661 106.8L50.6845 76.2924L67.7721 52.3901L95.2837 43.4618L124.438 53.435L141.487 77.283L141.722 107.415L113.802 145.419L67.4114 130.363L50.5661 106.8ZM48.1755 107.58L38.2465 93.6907L22.4586 115.775L48.1114 124.1L48.1755 107.58ZM50.4959 124.874L50.5502 110.901L63.5732 129.118L50.4959 124.874ZM48.1016 126.636L21.6336 118.047L47.9923 154.795L48.1016 126.636ZM50.3717 156.892L50.4861 127.41L65.9371 132.424L93.5997 171.119L50.3717 156.892ZM128.34 54.7698L141.455 73.1142L141.346 59.2189L128.34 54.7698ZM141.326 56.6595L125.925 51.3909L115.553 36.8836L141.107 28.5907L141.326 56.6595ZM143.74 60.0378L143.869 76.4908L154.015 90.6837L169.944 69.0018L143.74 60.0378ZM169.65 66.3484L143.72 57.4784L143.505 29.8979L169.65 66.3484ZM122.023 50.0562L99.1128 42.2191L113.161 37.6601L122.023 50.0562ZM95.3033 40.9159L111.687 35.5988L95.7317 13.2801L79.773 35.6033L95.3033 40.9159ZM75.9382 36.8441L66.2978 50.3292L50.7657 55.3698L50.8709 28.269L75.9382 36.8441ZM78.3067 37.6543L91.4742 42.1586L70.136 49.0835L78.3067 37.6543ZM116.205 146.198L141.754 111.424L142.091 154.599L116.205 146.198ZM144.116 108.208L144.464 152.765L170.088 117.041L169.971 117.126L153.989 94.7702L144.116 108.208ZM143.901 80.6596L144.085 104.2L152.521 92.7172L143.901 80.6596ZM98.6998 13.3086L139.249 26.6542L114.08 34.8224L98.6998 13.3086ZM20.6263 69.0436V114.215L36.7726 91.6291L20.6263 69.0436ZM98.0542 170.904L140.977 156.777L114.698 148.249L98.0542 170.904ZM112.295 147.469L95.7448 169.996L69.7753 133.67L112.295 147.469ZM155.483 92.7367L170.374 113.566V72.4684L155.483 92.7367ZM47.75 25.4281L61.4476 6.33136L25.5869 32.7225L47.75 25.4281ZM25.5869 151.278L61.4476 177.669L47.75 158.572L25.5869 151.278ZM45.3625 155.243L20.6263 120.757V147.102L45.3625 155.243ZM18.2388 117.428V141.033L4.5413 98.3314L18.2388 117.428ZM18.2388 70.6863L2.95111 92L18.2388 113.314V70.6863ZM18.2388 66.5719L4.5413 85.6686L18.2388 42.9671V66.5719ZM20.6263 63.2434V36.8979L45.3625 28.7567L20.6263 63.2434ZM51.6131 159.843L66.9008 181.157L91.6369 173.016L51.6131 159.843ZM95.5 174.287L73.3368 181.582H117.663L95.5 174.287ZM129.552 177.669L165.413 151.277L143.25 158.572L129.552 177.669ZM139.387 159.843L99.363 173.016L124.099 181.157L139.387 159.843ZM145.637 155.243L170.374 147.102V120.757L145.637 155.243ZM172.761 117.428V141.033L186.459 98.3311L172.761 117.428ZM186.459 85.6689L172.761 42.9669V66.5719L186.459 85.6689ZM172.761 113.314L188.049 92L172.761 70.6863V113.314ZM170.374 63.2434V36.8979L145.637 28.7567L170.374 63.2434ZM143.25 25.4281L165.413 32.7225L129.552 6.33121L143.25 25.4281ZM139.387 24.1567L99.363 10.9841L124.099 2.84296L139.387 24.1567Z" fill="white"/>
</svg>
