<svg width="172" height="19" viewBox="0 0 172 19" fill="none" xmlns="http://www.w3.org/2000/svg">
<path d="M15.192 18.36L10.152 13.344L12.168 11.328L17.184 16.344L15.192 18.36ZM9.096 18.36C7.368 18.36 5.876 17.984 4.62 17.232C3.372 16.48 2.408 15.428 1.728 14.076C1.056 12.724 0.72 11.152 0.72 9.36C0.72 7.568 1.056 5.996 1.728 4.644C2.408 3.292 3.372 2.24 4.62 1.488C5.876 0.736 7.368 0.36 9.096 0.36C10.824 0.36 12.312 0.736 13.56 1.488C14.816 2.24 15.78 3.292 16.452 4.644C17.132 5.996 17.472 7.568 17.472 9.36C17.472 11.152 17.132 12.724 16.452 14.076C15.78 15.428 14.816 16.48 13.56 17.232C12.312 17.984 10.824 18.36 9.096 18.36ZM9.096 15.288C10.192 15.304 11.104 15.068 11.832 14.58C12.56 14.092 13.104 13.4 13.464 12.504C13.832 11.608 14.016 10.56 14.016 9.36C14.016 8.16 13.832 7.12 13.464 6.24C13.104 5.36 12.56 4.676 11.832 4.188C11.104 3.7 10.192 3.448 9.096 3.432C8 3.416 7.088 3.652 6.36 4.14C5.632 4.628 5.084 5.32 4.716 6.216C4.356 7.112 4.176 8.16 4.176 9.36C4.176 10.56 4.356 11.6 4.716 12.48C5.084 13.36 5.632 14.044 6.36 14.532C7.088 15.02 8 15.272 9.096 15.288ZM25.6995 18.36C24.3075 18.36 23.0835 18.08 22.0275 17.52C20.9715 16.952 20.1475 16.156 19.5555 15.132C18.9635 14.108 18.6675 12.904 18.6675 11.52V0.743999L21.9795 0.719999V11.496C21.9795 12.064 22.0755 12.58 22.2675 13.044C22.4595 13.508 22.7235 13.908 23.0595 14.244C23.4035 14.58 23.7995 14.84 24.2475 15.024C24.7035 15.2 25.1875 15.288 25.6995 15.288C26.2275 15.288 26.7155 15.196 27.1635 15.012C27.6195 14.828 28.0155 14.568 28.3515 14.232C28.6875 13.896 28.9475 13.496 29.1315 13.032C29.3235 12.568 29.4195 12.056 29.4195 11.496V0.719999H32.7315V11.52C32.7315 12.904 32.4355 14.108 31.8435 15.132C31.2515 16.156 30.4275 16.952 29.3715 17.52C28.3155 18.08 27.0915 18.36 25.6995 18.36ZM35.1216 18V0.719999H38.3856V18H35.1216ZM48.1991 18.36C46.4711 18.36 44.9791 17.984 43.7231 17.232C42.4751 16.48 41.5111 15.428 40.8311 14.076C40.1591 12.724 39.8231 11.152 39.8231 9.36C39.8231 7.568 40.1591 5.996 40.8311 4.644C41.5111 3.292 42.4751 2.24 43.7231 1.488C44.9791 0.736 46.4711 0.36 48.1991 0.36C50.1831 0.36 51.8471 0.851999 53.1911 1.836C54.5431 2.82 55.4951 4.152 56.0471 5.832L52.7591 6.744C52.4391 5.696 51.8991 4.884 51.1391 4.308C50.3791 3.724 49.3991 3.432 48.1991 3.432C47.1031 3.432 46.1871 3.676 45.4511 4.164C44.7231 4.652 44.1751 5.34 43.8071 6.228C43.4391 7.116 43.2551 8.16 43.2551 9.36C43.2551 10.56 43.4391 11.604 43.8071 12.492C44.1751 13.38 44.7231 14.068 45.4511 14.556C46.1871 15.044 47.1031 15.288 48.1991 15.288C49.3991 15.288 50.3791 14.996 51.1391 14.412C51.8991 13.828 52.4391 13.016 52.7591 11.976L56.0471 12.888C55.4951 14.568 54.5431 15.9 53.1911 16.884C51.8471 17.868 50.1831 18.36 48.1991 18.36ZM57.4894 18V0.719999H60.7534V8.688L67.3294 0.719999H71.3134L64.0894 9.24L71.7694 18H67.6414L60.7534 10.128V18H57.4894ZM75.3863 18V0.719999H80.9783C81.1143 0.719999 81.3943 0.724 81.8183 0.732C82.2423 0.739999 82.6503 0.767999 83.0423 0.816C84.4343 0.984 85.6143 1.468 86.5823 2.268C87.5503 3.068 88.2863 4.084 88.7903 5.316C89.2943 6.548 89.5463 7.896 89.5463 9.36C89.5463 10.824 89.2943 12.172 88.7903 13.404C88.2863 14.636 87.5503 15.652 86.5823 16.452C85.6143 17.252 84.4343 17.736 83.0423 17.904C82.6503 17.952 82.2423 17.98 81.8183 17.988C81.3943 17.996 81.1143 18 80.9783 18H75.3863ZM78.6983 14.928H80.9783C81.1943 14.928 81.4863 14.924 81.8543 14.916C82.2223 14.9 82.5543 14.864 82.8503 14.808C83.6023 14.656 84.2143 14.304 84.6863 13.752C85.1663 13.2 85.5183 12.536 85.7423 11.76C85.9743 10.984 86.0903 10.184 86.0903 9.36C86.0903 8.496 85.9703 7.676 85.7303 6.9C85.4983 6.124 85.1423 5.468 84.6623 4.932C84.1823 4.396 83.5783 4.056 82.8503 3.912C82.5543 3.848 82.2223 3.812 81.8543 3.804C81.4863 3.796 81.1943 3.792 80.9783 3.792H78.6983V14.928ZM91.4653 18V0.719999H94.7293V18H91.4653ZM104.543 18.36C102.815 18.36 101.323 17.984 100.067 17.232C98.8189 16.48 97.8549 15.428 97.1749 14.076C96.5029 12.724 96.1669 11.152 96.1669 9.36C96.1669 7.568 96.5029 5.996 97.1749 4.644C97.8549 3.292 98.8189 2.24 100.067 1.488C101.323 0.736 102.815 0.36 104.543 0.36C106.527 0.36 108.191 0.851999 109.535 1.836C110.887 2.82 111.839 4.152 112.391 5.832L109.103 6.744C108.783 5.696 108.243 4.884 107.483 4.308C106.723 3.724 105.743 3.432 104.543 3.432C103.447 3.432 102.531 3.676 101.795 4.164C101.067 4.652 100.519 5.34 100.151 6.228C99.7829 7.116 99.5989 8.16 99.5989 9.36C99.5989 10.56 99.7829 11.604 100.151 12.492C100.519 13.38 101.067 14.068 101.795 14.556C102.531 15.044 103.447 15.288 104.543 15.288C105.743 15.288 106.723 14.996 107.483 14.412C108.243 13.828 108.783 13.016 109.103 11.976L112.391 12.888C111.839 14.568 110.887 15.9 109.535 16.884C108.191 17.868 106.527 18.36 104.543 18.36ZM113.833 18V0.719999H125.113V3.768H117.097V7.464H123.673V10.512H117.097V14.952H125.113V18H113.833ZM130.394 18V0.719999H141.674V3.768H133.658V7.464H140.234V10.512H133.658V14.952H141.674V18H130.394ZM143.35 18V0.719999H150.646C150.814 0.719999 151.038 0.727999 151.318 0.743999C151.606 0.751999 151.862 0.776 152.086 0.816C153.118 0.975999 153.962 1.316 154.618 1.836C155.282 2.356 155.77 3.012 156.082 3.804C156.394 4.588 156.55 5.464 156.55 6.432C156.55 7.88 156.19 9.12 155.47 10.152C154.75 11.176 153.622 11.808 152.086 12.048L150.646 12.144H146.614V18H143.35ZM153.094 18L149.686 10.968L153.046 10.32L156.79 18H153.094ZM146.614 9.096H150.502C150.67 9.096 150.854 9.088 151.054 9.072C151.254 9.056 151.438 9.024 151.606 8.976C152.046 8.856 152.386 8.656 152.626 8.376C152.866 8.088 153.03 7.772 153.118 7.428C153.214 7.076 153.262 6.744 153.262 6.432C153.262 6.12 153.214 5.792 153.118 5.448C153.03 5.096 152.866 4.78 152.626 4.5C152.386 4.212 152.046 4.008 151.606 3.888C151.438 3.84 151.254 3.808 151.054 3.792C150.854 3.776 150.67 3.768 150.502 3.768H146.614V9.096ZM158.228 18V0.719999H165.524C165.692 0.719999 165.916 0.727999 166.196 0.743999C166.484 0.751999 166.74 0.776 166.964 0.816C167.996 0.975999 168.84 1.316 169.496 1.836C170.16 2.356 170.648 3.012 170.96 3.804C171.272 4.588 171.428 5.464 171.428 6.432C171.428 7.4 171.268 8.28 170.948 9.072C170.636 9.856 170.148 10.508 169.484 11.028C168.828 11.548 167.988 11.888 166.964 12.048C166.74 12.08 166.484 12.104 166.196 12.12C165.908 12.136 165.684 12.144 165.524 12.144H161.492V18H158.228ZM161.492 9.096H165.38C165.548 9.096 165.732 9.088 165.932 9.072C166.132 9.056 166.316 9.024 166.484 8.976C166.924 8.856 167.264 8.656 167.504 8.376C167.744 8.088 167.908 7.772 167.996 7.428C168.092 7.076 168.14 6.744 168.14 6.432C168.14 6.12 168.092 5.792 167.996 5.448C167.908 5.096 167.744 4.78 167.504 4.5C167.264 4.212 166.924 4.008 166.484 3.888C166.316 3.84 166.132 3.808 165.932 3.792C165.732 3.776 165.548 3.768 165.38 3.768H161.492V9.096Z" fill="#4B4B4B"/>
</svg>
